<svg xmlns="http://www.w3.org/2000/svg" xmlns:xlink="http://www.w3.org/1999/xlink" width="3041.039" height="2106.103" viewBox="0 0 3041.039 2106.103">
  <defs>
    <clipPath id="clip-path">
      <path id="Path_1" data-name="Path 1" d="M1516.886-824.909l-35.656,61.329-71.075.713-71.075.713-35.656,61.567-35.656,61.8-69.886.475-69.649.713L1092.575-576.5l-35.656,61.329-44.452-.238c-24.246-.238-54.673-.951-67.509-1.9l-23.3-1.426L887.67-578.167l-33.992-59.427-71.075-.713-71.075-.713-35.181-61.8-35.419-61.567H495.212l-35.656,61.8L423.9-639.02l-71.075.713-71.313.713-36.37,62.517-36.37,62.518,36.37,63.468,36.37,63.468,71.075.713,71.313.713,28.525,50.157c15.689,27.574,31.14,54.911,34.23,60.378l5.7,10.221-32.8,56.575c-18.066,31.14-34.23,58.239-36.132,60.14-2.853,3.09-13.074,3.328-70.362,2.615l-67.034-.713L250.134-83.256,214.477-21.927,143.4-20.739,72.327-19.55l-36.369,61.8C15.99,76.247.064,105.247.3,106.673s16.4,30.664,36.132,64.895L72.09,233.61H213.051l33.517,58.476c18.541,32.328,33.517,59.427,33.517,60.378,0,1.189-15.213,28.05-33.517,59.665-18.541,31.615-34.23,59.19-34.706,61.329s14.976,31.615,34.468,65.608l35.656,61.8,70.837,1.189,71.075,1.189L458.6,663.626l34.706,60.616L473.105,758.71c-10.935,19.017-26.861,46.591-35.419,61.329l-15.451,26.386,36.37,63.231,36.37,63.231H635.936l35.419,61.8,35.181,61.8H854.153l33.279-57.526c18.3-31.615,34.943-59.427,36.845-62.042,3.566-4.279,6.418-4.279,70.124-2.377l66.321,1.9,34.468,60.141,34.23,59.9h141.2l35.419,61.8,35.181,61.8h145.953l36.132-61.8,36.132-61.8H1700.4l35.656-61.8,35.656-61.567,66.8-.238h66.8l35.419,61.8,35.181,61.8h141.437l35.181,61.8,35.181,61.8,73.452-.475,73.69-.713,35.656-61.329,35.656-61.091h140.962l35.894-61.8c19.968-33.992,36.132-63.231,35.894-64.657,0-1.664-15.926-30.427-35.181-63.706l-34.943-60.616-27.337-1.426c-14.976-.951-47.066-1.664-71.312-1.9l-44.214-.238-34.943-61.091c-25.673-44.689-34.468-62.042-33.042-65.132.951-2.139,16.4-28.525,33.992-58.952l32.091-54.911h140.962l36.132-61.8,36.132-61.8,70.124-.475,70.362-.713,35.656-61.567,35.894-61.567,69.886.951,70.125.951,35.419-60.616c19.492-33.279,36.132-61.8,36.607-63.231.713-1.664-14.976-31.378-34.943-66.083L2970.24,102.87H2829.516l-35.656-61.8-35.656-61.8h-73.69l-73.69.238-35.656,61.567-35.656,61.8h-39.46c-21.631,0-52.3-.713-68.222-1.664l-28.763-1.426-35.181-61.329L2332.7-23.116H2191.742L2157.987-81.83l-33.517-58.952,4.279-7.369c2.377-4.041,17.59-30.427,33.992-58.714l29.714-51.345,73.69-.238h73.69l36.37-62.993,36.37-62.755-35.894-62.755-36.132-62.993-72.739-1.664c-66.083-1.664-72.977-1.426-75.592,2.139-1.426,2.139-17.591,29.714-35.656,60.854l-33.042,57.05-71.075-.475-71.075-.713-33.992-59.427c-18.779-32.8-34.23-59.9-34.23-60.616s15.927-28.525,35.181-61.8l35.419-60.378-36.132-62.993L1911.483-761.2l-71.075-.713-71.075-.475-35.181-61.8L1698.971-886H1552.542Zm210.61,4.516c18.3,32.091,33.517,59.665,33.517,60.854,0,2.377-61.091,108.633-67.272,116.715-2.615,3.566-9.033,3.8-70.362,2.139l-67.747-1.664-33.755-58.714-33.517-58.714,34.468-59.665,34.468-59.427h136.445ZM612.878-752.883h24.959l26.623,47.066c14.738,25.673,29.951,52.3,33.755,58.714l6.894,11.885L670.166-575.79,635.46-516.362l-66.8.713c-61.329.475-67.034.238-70.362-3.566-7.131-8.32-66.321-114.813-65.608-118.141.475-1.664,15.689-29,33.992-60.853l33.279-57.526,43.976,1.426C568.189-753.6,599.091-752.883,612.878-752.883ZM1515.46-695.12l33.992,59.19-34.23,58.476-33.993,58.714H1344.784L1310.317-578.4l-34.23-59.427,33.992-58.714,33.755-58.477,68.936.475,68.936.475Zm424.073-1.426c18.541,32.566,33.755,59.9,33.755,61.329,0,1.189-15.451,28.763-34.23,61.091l-33.992,58.714-67.985-1.426c-58-1.188-68.223-1.9-70.837-4.992-1.664-2.139-16.877-28.287-33.992-58.239-27.812-48.255-30.9-54.911-28.763-59.9,3.09-6.894,62.042-108.158,65.37-112.436,1.664-2.14,18.542-2.853,69.411-2.853h67.272ZM457.654-572.224c18.541,32.091,33.279,59.665,32.566,61.567s-15.689,29-33.755,59.9L423.9-394.18l-68.936.238H286.028L251.8-453.369,217.805-512.8l18.3-31.378c10.221-17.353,25.91-44.214,34.943-59.665l16.4-27.812,68.223.475,68.223.713Zm424.549,0c28.763,50.394,32.566,58.239,30.427,62.755-1.664,2.853-17.59,30.189-35.419,60.854l-32.8,55.862-65.845.475-65.845.475-5.705-8.8c-8.32-12.836-63.231-109.346-63.231-111.248,0-1.189,13.787-25.2,56.575-98.174l13.074-22.345,67.747,1.189,67.985,1.188Zm421.7,1.426,34.23,59.665-33.993,58.477-33.992,58.714-68.936-.713-68.7-.475-33.992-59.19-33.755-59.427,4.279-7.131c4.279-6.893,30.9-52.534,54.673-93.657l9.984-17.115,67.985.475,67.985.713Zm422.647-2.377c18.3,32.091,33.279,59.665,33.279,61.567,0,1.664-14.976,29-33.279,60.378l-33.279,57.288H1557.059L1523.3-452.656c-19.73-34.468-33.041-60.616-32.566-62.993.713-2.139,15.927-29.238,33.755-60.14l32.566-55.862h136.207ZM667.551-451.943c17.59,30.9,33.042,58.239,34.23,60.616,1.664,3.328-5.467,17.353-31.853,62.755l-33.992,58.239H497.351l-32.8-57.763c-18.3-31.615-33.042-58.714-33.042-59.9,0-1.426,15.213-29,34.23-61.329l34.23-58.714H635.46Zm424.786,3.328,33.755,59.189-34.468,59.665-34.705,59.427H923.088L889.1-329.761,855.1-388.95l21.869-37.558c11.885-20.681,27.574-47.542,34.706-59.665l12.836-21.869h67.034l67.034.238Zm423.36,1.426,33.993,59.9L1515.7-328.81,1481.7-270.333l-68.7-.713-68.7-.475-33.042-57.763c-18.066-31.853-32.8-59.19-32.328-61.091.475-1.664,15.689-28.763,33.992-60.378l33.279-57.288,67.747.476,67.509.713ZM1886.286-505.9l22.107,1.426,33.279,58,33.279,57.764-34.943,60.378-35.181,60.378-51.107-.238c-28.05-.238-58.952-.951-68.222-1.9l-17.353-1.426-33.517-58.239c-28.763-50.157-33.042-58.714-30.9-63.468,2.853-6.418,61.8-107.682,65.132-111.961C1771.234-508.28,1844.449-508.993,1886.286-505.9Zm483.263,62.28,33.992,59.427-4.517,7.844c-2.377,4.279-17.828,30.9-34.23,59.19l-29.714,51.345-68.936.238h-69.173l-33.992-59.665c-26.148-45.64-33.517-60.616-32.091-63.706,1.188-2.377,16.64-29,34.23-59.427l32.091-54.911h138.584ZM787.594-382.057h60.14L881.252-323.1c18.3,32.328,33.517,59.9,33.517,60.853,0,1.189-15.213,28.287-33.517,60.141l-33.517,57.763-67.985-.475-67.985-.713-34.23-59.9-34.23-59.9L665.174-302.9c53.247-90.8,47.3-82.247,55.149-80.583C724.364-382.77,754.553-382.057,787.594-382.057Zm516.542,57.288,33.993,59.665-14.5,25.435c-8.082,13.787-23.533,40.411-34.23,58.952l-19.255,33.755-67.747.238H1134.65l-33.755-59.427c-18.779-32.566-33.992-60.616-33.992-62.042,0-1.188,7.607-15.213,16.64-30.9,9.271-15.451,24.246-41.124,33.279-56.812l16.877-28.525h136.445Zm423.6-.238c26.386,46.353,33.517,60.616,31.853,63.944-1.189,2.377-16.64,29-34.23,59.427l-32.091,54.911H1557.534l-33.992-59.427c-18.541-32.8-33.517-60.378-33.042-61.567s15.689-27.812,33.992-59.427l33.279-57.288h136.207Zm422.409-3.566c17.353,29.951,32.566,57.05,34.23,59.665,2.377,4.516-1.426,12.123-31.378,63.706l-34.23,58.476H1980.181l-33.517-58.952-33.517-59.19,34.706-59.665,34.943-59.9,67.985.476,67.985.713ZM669.928-201.4c20.918,36.845,33.279,60.853,32.328,63.23C700.117-132.7,638.788-27.157,635.7-23.829c-2.139,2.377-18.3,2.615-69.173,1.426l-66.559-1.426L471.441-73.748c-15.689-27.574-31.14-54.435-34.23-60.141l-5.467-9.984,33.992-58.476,34.23-58.476H636.174Zm363.933-57.05H1059.3l33.517,58.476c18.541,32.091,33.042,59.19,32.8,59.9-.475.951-16.164,28.05-34.943,60.616l-33.992,58.714-66.559-.475L923.8-21.927l-34.23-59.19c-18.541-32.8-33.517-59.9-33.279-60.616,10.222-18.066,62.993-107.92,66.321-112.912l4.992-6.893,40.41,1.426C990.36-259.161,1020.074-258.448,1033.861-258.448Zm482.074,57.288c31.615,55.149,33.755,60.14,31.378,65.846-1.664,3.328-16.878,29.951-33.755,59.19l-31.14,53.009H1345.5l-33.755-59.427c-18.541-32.566-33.279-60.14-32.8-61.329.238-1.188,15.689-28.05,33.992-59.427l33.279-57.526H1481.7Zm420.983-4.516c17.59,30.427,32.8,57.05,33.992,59.189,1.664,2.615-6.418,18.3-32.328,62.993L1904.114-24.3l-67.272.713-67.51.475-33.279-58.476c-18.3-32.091-33.279-59.665-33.279-61.091,0-1.664,14.976-28.763,33.279-60.378l33.279-57.526,67.985-.237H1905.3ZM877.924-84.445c16.64,29.238,32.091,56.337,34.706,60.14l4.279,7.131L882.916,41.066,849.161,99.3h-137.4l-33.992-59.19L643.78-19.075l32.328-56.1c18.066-30.9,33.755-57.526,34.943-59.189,1.664-2.14,18.541-2.853,69.411-2.853h67.272Zm426.688,6.656L1338.6-18.362,1323.628,7.311c-8.082,14.025-23.533,40.648-34.23,59.19l-19.255,33.755H1134.65l-33.042-58c-18.066-31.853-33.042-58.714-33.279-59.427,0-.713,15.213-28.05,34.23-60.854l34.468-59.189h133.83Zm421.458-2.377c17.828,31.378,32.8,57.763,33.042,58.952.475,1.189-14.738,29-33.755,61.8l-34.468,59.665-66.559.238h-66.558l-34.23-59.19-33.993-59.427,22.107-37.558c11.885-20.681,27.574-47.542,34.706-59.665l12.836-21.869H1693.5Zm424.786,1.426c18.541,32.091,33.042,59.665,32.566,61.091-.713,1.664-16.164,28.525-34.468,59.9L2115.675,99.3H1979.23l-33.042-57.05c-18.3-31.378-32.8-58.714-32.566-60.854.476-2.139,15.689-29.714,33.992-61.091l33.279-57.526H2117.1ZM451.949-88.486C466.211-63.764,481.425-36.9,485.7-29.059L493.786-14.8,459.793,43.443l-33.755,58.239-67.985.713-67.985.475L260.831,52.476C244.9,24.664,229.453-2.435,226.363-7.665L220.9-17.173l29-49.919c15.927-27.574,31.378-53.96,34.23-58.952l5.467-8.8,68.223.475,68.223.713ZM1905.065-12.894c3.328,4.279,65.845,115.289,65.845,116.953,0,2.852-64.182,112.674-68.46,117.428-2.615,2.615-14.738,2.853-68.7,1.426l-65.37-1.9-33.517-58-33.279-58,29.951-51.583c16.4-28.287,32.566-55.624,35.894-60.854l5.943-9.271,65.846,1.9C1875.351-13.845,1905.065-12.894,1905.065-12.894Zm424.548,1.426c4.279,4.041,66.321,115.051,65.608,117.666-.475,1.664-15.689,28.763-33.992,60.378L2327.949,224.1l-68.7-.713-68.7-.475-33.992-59.427-33.992-59.427,4.516-7.131c2.377-3.8,17.353-29.714,33.279-57.05,15.927-27.574,29.951-51.108,31.14-52.534C2193.644-15.271,2326.523-14.321,2329.613-11.468ZM190.231-12.181l24.959,1.664,32.8,57.288c18.066,31.615,32.8,58.239,32.8,59.665,0,1.189-15.451,29-34.23,61.329l-34.23,58.952-67.272-.475L77.795,226l-5.705-8.8c-2.853-4.754-18.541-31.378-34.468-59.427C12.187,113.329,8.859,106.2,11.236,101.444c2.853-6.656,61.8-107.92,65.132-112.2C78.983-13.845,145.78-14.8,190.231-12.181ZM1063.1-4.812c3.328,4.992,19.254,32.328,35.419,60.853l29.476,51.821-34.468,59.19-34.706,59.427h-20.205c-11.172,0-42.075-.713-68.223-1.664l-48.017-1.426-33.517-58.952L855.1,105.247l21.869-37.32c11.885-20.681,27.574-47.542,34.706-59.665l12.836-21.869h132.879Zm452.836,49.681c18.541,32.328,33.517,59.665,33.517,60.853s-15.213,28.525-33.755,60.378l-33.755,58-67.985-.475-67.747-.713-31.378-54.673c-17.353-30.189-32.566-57.05-34.23-59.665-2.377-4.516,1.426-12.123,31.378-63.706l34.23-58.476h136.207Zm1271.744.951,33.755,59.427L2787.2,164.2l-34.23,58.714-68.7.475-68.7.713-33.992-59.427c-30.189-53.247-33.517-60.14-31.14-64.895,5.468-9.984,62.28-107.444,64.657-110.535,1.664-2.139,18.779-2.853,70.362-2.853h68.222Zm-2117.038.713c17.828,31.615,32.566,58.714,32.566,59.9,0,1.426-15.451,28.525-34.23,60.616L634.985,225.29l-66.8.713-66.559.475L468.113,168c-18.541-32.091-33.517-59.665-33.517-61.091s15.213-28.525,33.517-60.378L501.868-11.23h67.985l67.985.238ZM2149.905,168.478l34.468,59.9-35.181,59.9-34.943,60.14L2098.8,346.76c-8.558-.713-38.984-1.426-67.272-1.426h-51.345l-33.992-58.952c-18.541-32.328-33.755-59.9-33.755-61.091,0-1.426,10.7-20.681,23.771-42.788,12.836-22.345,28.05-48.255,33.755-57.763l9.984-17.115,67.747.475,67.747.713ZM396.8,111.665l29.951,1.426,32.8,57.05c18.066,31.378,32.8,58.239,32.8,59.665,0,3.09-63.944,112.912-67.985,117.191-2.139,2.139-19.492,2.377-69.886,1.426L287.216,347l-33.279-58c-18.541-32.091-33.279-58.952-32.8-59.9s16.164-28.05,34.943-60.378L290.307,110h38.271C349.734,110,380.4,110.714,396.8,111.665Zm483.976,55.386c17.828,30.664,32.8,57.763,33.279,59.9.713,2.377-12.6,27.812-32.8,62.518L847.259,347.71H779.274l-67.747-.238-33.042-58c-20.681-36.607-32.328-59.665-31.378-62.042,1.189-3.328,56.575-99.362,64.657-112.2l3.566-5.23,66.559.475,66.559.713Zm423.6,2.377,33.992,59.665-35.419,60.616-35.181,60.853-17.59-1.426c-9.746-.713-39.7-1.426-66.559-1.426H1134.65l-33.279-58.477c-18.3-32.328-33.042-59.665-32.566-61.091.475-1.189,15.927-28.525,34.468-60.14l33.755-58h133.355ZM1722.5,162.3c16.164,28.05,31.615,55.148,34.23,59.9l4.992,8.558-33.992,58.476-33.755,58.477H1557.534l-33.992-59.427c-18.541-32.8-33.517-60.378-33.042-61.567s15.689-27.812,33.992-59.427L1557.772,110l67.509.475,67.747.713Zm851.712,5.943c18.066,31.378,33.042,58.476,33.042,60.14s-15.213,29-33.755,61.091L2539.51,347.71H2404.016l-32.091-56.1c-17.59-30.9-33.042-58.239-34.23-60.616-1.664-3.328,5.467-17.353,31.853-62.755L2403.541,110l68.936.475,68.7.713Zm424.786.475c18.542,32.566,33.755,59.9,33.755,60.854,0,1.189-15.213,28.05-33.755,60.14l-33.992,58h-68.936l-68.936-.238-33.754-59.19-33.517-59.427,34.468-59.427L2829.04,110h136.207ZM1515.935,291.849c18.541,31.853,33.517,58.952,33.517,59.9S1534,379.8,1515.46,411.892l-33.992,58.239-66.8.713-66.8.475-33.517-58.239c-18.541-31.853-33.517-59.19-33.517-60.616,0-2.615,15.214-29.476,52.3-92.707l16.164-27.337,66.559.713,66.8.713ZM670.4,293.988l34.468,60.14-33.992,58-33.755,58-68.46.475-68.7.713-33.755-59.19-33.992-59.19,34.943-59.665,34.706-59.665H635.936Zm416.466-12.836c14.738,25.435,29.951,52.3,33.992,59.427l7.607,13.074-33.992,58.239-33.755,58.239h-137.4l-33.992-59.19c-29.476-51.583-33.517-59.665-31.14-64.182,5.23-9.984,62.042-107.207,64.419-110.3,1.664-2.139,17.591-2.852,70.124-2.377l67.747.713Zm851.712,11.885,33.755,59.427-34.706,59.427-34.468,59.427h-133.83l-33.992-59.665-33.992-59.665,18.3-31.14c9.984-17.353,25.673-43.976,34.706-59.427l16.4-27.812h67.034l67.034.238Zm423.835-.713c18.3,32.328,33.042,59.9,32.8,61.329-.475,1.664-15.689,28.763-33.992,60.14l-33.279,57.526H2191.98l-34.468-60.141-34.23-60.14,26.861-46.353c14.976-25.435,30.189-51.821,33.992-58.714l7.131-12.361h137.4Zm424.786,1.664,33.755,59.19-33.993,58.477-34.23,58.476-68.46.475-68.7.713L2582.3,412.843c-18.3-32.091-33.279-59.427-33.279-61.091s14.976-28.763,33.279-60.378l33.279-57.763,68.7.713,68.936.475ZM1694.93,359.358c3.09,2.852,66.083,114.338,66.083,116.953,0,1.426-15.213,28.763-33.755,60.616l-33.755,58H1559.436l-34.943-60.854-34.705-60.616,32.566-56.337c18.066-30.9,33.517-57.526,34.468-58.952C1558.96,355.555,1691.84,356.506,1694.93,359.358ZM2147.766,410.7c17.353,29.951,32.566,56.812,33.992,59.427,2.139,4.279-2.377,13.312-32.328,65.132l-34.943,60.14-66.559-.951-66.321-.713-33.992-59.427c-30.189-52.3-33.755-59.665-31.378-64.181,1.664-2.853,17.353-29.951,34.943-60.378l32.091-55.386,66.558.951,66.559.713ZM458.842,416.171c18.066,31.853,32.8,59.19,32.328,60.854s-15.689,29-33.992,60.378L423.9,594.928l-68.7-.713-68.7-.475-33.992-59.427c-30.427-53.009-33.755-59.9-30.9-64.181,1.664-2.615,17.115-29,34.468-58.952l31.615-53.96,68.936.475,69.173.713Zm419.081-6.181c16.64,29.238,32.091,56.337,34.468,60.141l4.516,7.131L882.916,535.5l-33.992,58.239-68.7.475-68.7.713L677.773,535.5l-33.992-59.19,34.706-59.427,34.706-59.665H847.735ZM1253.5,358.645l19.017,1.664,33.992,59.427,33.755,59.427-33.992,58.476-33.992,58.476-47.542.713c-25.91.238-56.812-.238-68.7-1.189l-21.156-1.9-33.755-58.714-33.517-58.714,34.705-59.427,34.468-59.665h48.968C1212.618,357.219,1243.045,357.932,1253.5,358.645Zm1315.958,48.968c15.927,27.812,31.378,54.911,34.23,60.141l5.468,9.508-34.468,58.714-34.23,58.952H2403.779L2369.786,535.5c-18.542-32.8-33.517-60.378-33.042-61.567s15.689-27.812,33.992-59.427l33.279-57.288h136.208Zm-207.52,131.453c29.476,51.107,33.755,59.9,31.615,64.657-4.041,9.033-62.518,108.633-65.608,112.2-2.377,2.615-14.976,2.852-69.411,1.426l-66.321-1.9-32.091-55.862c-17.353-30.664-32.8-57.526-33.755-59.9-1.664-3.09,6.418-18.541,32.091-62.755l33.992-58.476,67.747.713,67.747.475Zm-1690.35,2.377c30.664,53.485,33.517,59.665,30.664,64.181-1.664,2.615-17.115,29-34.468,58.714l-31.615,54.2H499.253L465.736,660.06c-18.541-32.328-33.517-59.427-33.517-60.616s15.213-28.525,33.992-60.378l33.755-58.239,68.7.713,68.936.475Zm423.36-.951,33.992,59.665-34.23,58.477-34.23,58.714-67.747.713-67.985.475L891,659.823c-19.73-34.468-33.042-60.616-32.566-62.993.713-2.139,15.926-29.238,33.755-60.14l32.566-55.862h68.222l67.985.238Zm420.983-1.189c18.541,32.328,33.517,59.665,33.517,61.329,0,1.426-15.213,28.525-33.992,60.378L1481.7,718.774l-66.558-.238c-36.607,0-67.272-.951-68.223-1.9-.713-.951-16.164-27.1-33.992-58.239-19.492-33.992-31.853-58-31.14-60.378,1.426-3.09,56.812-99.362,64.657-111.961,3.328-5.23,3.566-5.23,69.649-5.23h66.321Zm423.835,2.139,34.706,60.616-33.755,57.763-33.755,57.526h-137.4l-33.993-59.19c-18.541-32.566-33.517-59.9-33.042-60.616,1.188-2.139,33.042-56.813,51.345-88.19l16.877-28.525h134.306ZM883.391,665.29l33.992,59.9-33.992,58.476L849.4,842.145l-68.7-.713-68.7-.475L678.01,782.005l-33.755-59.19,6.418-10.935c3.566-6.181,19.017-32.8,34.468-59.427l28.05-48.017,67.985.475,67.985.713Zm423.122-1.426,33.755,59.665-34.23,58.714-34.23,58.714-67.509.713-67.747.475L1103.51,784.62C1085.444,753,1070.23,725.668,1069.755,724c-.475-1.9,14.263-29.476,33.042-61.329l33.755-58.239h135.97Zm422.409-.713c18.3,32.328,33.042,59.665,32.566,61.091s-15.927,28.525-34.468,60.14L1693.5,842.145H1559.436l-33.755-58.714c-18.3-32.328-32.8-60.14-32.091-62.042,1.189-3.09,57.05-99.838,64.419-111.723,3.328-5.23,3.566-5.23,70.6-5.23l67.034.238Zm422.647,1.9,34.468,60.378-33.755,57.763-33.517,57.763H1981.607l-33.042-57.05c-18.066-31.378-32.8-58.477-33.042-60.14,0-1.9,15.214-29.476,33.755-61.329l33.755-58h133.83ZM671.592,787.472,705.585,846.9l-34.706,59.427-34.705,59.427H499.728l-33.992-59.665c-26.148-45.64-33.517-60.616-32.091-63.706,1.189-2.377,16.64-29,34.23-59.427l32.091-54.911H637.837Zm422.885.238,33.517,58.239-34.706,59.9-34.705,59.9-67.509-.713-67.509-.475L890.522,906.8c-18.066-31.853-32.8-59.19-32.328-60.854s15.689-28.763,33.992-60.378l33.279-57.526,67.747.713,67.747.475Zm423.36.713,33.755,59.19-5.705,9.746c-3.09,5.467-18.541,31.615-33.992,58.476l-28.525,48.73h-136.92l-33.755-58.952-33.755-58.952,34.705-59.427,34.468-59.19,67.985.475,67.747.713Zm422.647-1.9c18.3,32.328,33.042,59.665,32.566,61.091-.475,1.189-15.927,28.287-34.23,60.14l-33.755,58H1771l-31.615-55.386c-17.353-30.189-33.042-57.288-34.706-59.9-2.615-4.516,0-10.222,28.05-58.239,17.115-29.476,32.566-55.862,34.468-58.952,3.328-5.23,3.565-5.23,71.788-5.23H1907.2Zm424.549-.238c18.066,31.378,32.8,58.239,32.8,59.427.238,1.426-14.976,28.763-33.755,60.616l-33.755,58.239h-137.4l-32.8-57.05c-18.066-31.378-32.8-58.476-32.8-60.14-.238-1.664,14.976-29.238,33.517-61.329l33.755-58,68.7.475,68.936.713ZM2151.807,909.417c18.3,31.615,33.042,58.714,33.042,59.9,0,1.426-15.213,29-33.992,61.329l-34.23,58.714H1980.894l-33.992-59.427c-30.427-53.485-33.755-59.9-31.14-64.657,7.369-14.025,62.517-108.158,65.37-111.248,2.615-3.09,12.836-3.566,70.362-2.853l67.272.713Zm-1268.178,1.9,34.23,59.665-4.516,7.844c-2.377,4.041-17.828,30.665-34.23,58.952L849.4,1089.125H780.463l-68.936.238-33.992-59.427-33.992-59.19,21.869-37.558c11.885-20.681,27.574-47.542,34.706-59.665l12.836-21.869H849.4ZM1305.8,910.13c18.3,32.091,33.279,58.952,33.042,59.665,0,.713-15.451,27.812-34.468,60.378l-34.23,59.19-66.8-.238c-59.9,0-67.272-.475-70.362-4.041-3.566-4.279-63.231-107.92-64.182-111.961-.475-1.189,14.738-29,33.755-61.8l34.468-59.665h135.494Zm423.122.476c18.3,32.091,33.279,59.665,33.279,61.329,0,1.426-14.976,28.525-33.279,60.14l-33.279,57.288-68.7-.475-68.7-.713-33.755-59.19L1490.5,969.8l14.738-25.2c8.082-13.787,23.771-40.411,34.468-59.19l19.73-33.755,67.985.238h68.223Zm848.859,1.189,33.517,58.952-34.468,59.19-34.468,59.427H2405.68l-33.517-58.476c-18.542-32.328-33.517-59.665-33.517-60.854s15.214-28.525,33.755-60.378l33.755-58,68.936.475,68.936.713ZM1454.368,974.312l29.951,1.664,33.755,58.714,33.755,58.952-34.706,59.665-34.706,59.665-40.648-.238c-22.582-.238-53.722-.951-69.173-1.9l-28.525-1.426-32.8-57.05c-17.828-31.378-32.8-57.763-32.8-58.952,0-.951,15.689-28.525,34.706-61.091l34.705-59.427h38.271C1407.3,972.885,1437.966,973.6,1454.368,974.312Zm837.925.951h38.271l33.992,59.427,33.992,59.427-34.468,58.952-34.23,58.714-67.985.713-68.222.475-5.467-8.8c-14.976-23.533-63.469-110.535-62.755-111.961.476-.951,16.4-28.287,35.181-60.853l34.23-59.19,29.714,1.664C2240.948,974.549,2271.375,975.263,2292.293,975.263Z" transform="translate(-387.818 403.897)"/>
    </clipPath>
  </defs>
  <g id="Mask_Group_2" data-name="Mask Group 2" transform="translate(387.52 482.103)" opacity="0.02" clip-path="url(#clip-path)">
    <g id="Path_3" data-name="Path 3" transform="translate(0 131)">
      <path d="M 1919.5 951.5 L 0.5 951.5 L 0.5 0.5 L 1919.5 0.5 L 1919.5 951.5 Z" stroke="none"/>
      <path d="M 1 1 L 1 951 L 1919 951 L 1919 1 L 1 1 M 0 0 L 1920 0 L 1920 952 L 0 952 L 0 0 Z" stroke="none" fill="#707070"/>
    </g>
  </g>
</svg>
