<svg xmlns="http://www.w3.org/2000/svg" viewBox="0 0 1486.13 367.67"><defs><style>.cls-1{fill:#a3bac3;}</style></defs><g id="Layer_2" data-name="Layer 2"><g id="Layer_6" data-name="Layer 6"><polygon class="cls-1" points="59.11 225.88 20.32 225.88 0.93 259.47 20.32 293.06 59.11 293.06 78.5 259.47 59.11 225.88"/><polygon class="cls-1" points="59.11 151.26 20.32 151.26 0.93 184.85 20.32 218.44 59.11 218.44 78.5 184.85 59.11 151.26"/><polygon class="cls-1" points="123.04 188.57 84.25 188.57 64.86 222.16 84.25 255.75 123.04 255.75 142.43 222.16 123.04 188.57"/><polygon class="cls-1" points="59.19 300.49 20.41 300.49 1.01 334.08 20.41 367.67 59.19 367.67 78.58 334.08 59.19 300.49"/><polygon class="cls-1" points="123.12 263.19 84.33 263.19 64.94 296.77 84.33 330.36 123.12 330.36 142.51 296.77 123.12 263.19"/><polygon class="cls-1" points="187.05 300.49 148.26 300.49 128.87 334.08 148.26 367.67 187.05 367.67 206.44 334.08 187.05 300.49"/><polygon class="cls-1" points="187 225.88 148.21 225.88 128.82 259.47 148.21 293.06 187 293.06 206.39 259.47 187 225.88"/><polygon class="cls-1" points="250.93 263.19 212.14 263.19 192.75 296.77 212.14 330.36 250.93 330.36 270.32 296.77 250.93 263.19"/><polygon class="cls-1" points="250.93 188.57 212.14 188.57 192.75 222.16 212.14 255.75 250.93 255.75 270.32 222.16 250.93 188.57"/><polygon class="cls-1" points="314.86 225.88 276.07 225.88 256.68 259.47 276.07 293.06 314.86 293.06 334.25 259.47 314.86 225.88"/><polygon class="cls-1" points="314.99 300.13 276.2 300.13 256.81 333.72 276.2 367.31 314.99 367.31 334.38 333.72 314.99 300.13"/><polygon class="cls-1" points="378.92 262.83 340.13 262.83 320.74 296.42 340.13 330 378.92 330 398.31 296.42 378.92 262.83"/><polygon class="cls-1" points="442.85 300.13 404.06 300.13 384.67 333.72 404.06 367.31 442.85 367.31 462.24 333.72 442.85 300.13"/><polygon class="cls-1" points="442.8 225.52 404.01 225.52 384.62 259.11 404.01 292.7 442.8 292.7 462.19 259.11 442.8 225.52"/><polygon class="cls-1" points="506.73 262.83 467.94 262.83 448.55 296.42 467.94 330 506.73 330 526.12 296.42 506.73 262.83"/><polygon class="cls-1" points="506.73 188.21 467.94 188.21 448.55 221.8 467.94 255.39 506.73 255.39 526.12 221.8 506.73 188.21"/><polygon class="cls-1" points="58.23 76.29 19.44 76.29 0.05 109.88 19.44 143.47 58.23 143.47 77.62 109.88 58.23 76.29"/><polygon class="cls-1" points="58.18 1.67 19.39 1.67 0 35.26 19.39 68.85 58.18 68.85 77.57 35.26 58.18 1.67"/><polygon class="cls-1" points="122.11 38.98 83.32 38.98 63.93 72.57 83.32 106.16 122.11 106.16 141.5 72.57 122.11 38.98"/><polygon class="cls-1" points="186.04 1.67 147.25 1.67 127.86 35.26 147.25 68.85 186.04 68.85 205.43 35.26 186.04 1.67"/><polygon class="cls-1" points="122.19 113.6 83.4 113.6 64.01 147.19 83.4 180.78 122.19 180.78 141.58 147.19 122.19 113.6"/><polygon class="cls-1" points="186.12 76.29 147.33 76.29 127.94 109.88 147.33 143.47 186.12 143.47 205.51 109.88 186.12 76.29"/><polygon class="cls-1" points="250.04 113.6 211.26 113.6 191.87 147.19 211.26 180.78 250.04 180.78 269.44 147.19 250.04 113.6"/><polygon class="cls-1" points="249.99 38.98 211.21 38.98 191.81 72.57 211.21 106.16 249.99 106.16 269.39 72.57 249.99 38.98"/><polygon class="cls-1" points="313.92 76.29 275.14 76.29 255.74 109.88 275.14 143.47 313.92 143.47 333.32 109.88 313.92 76.29"/><polygon class="cls-1" points="313.92 1.67 275.14 1.67 255.74 35.26 275.14 68.85 313.92 68.85 333.32 35.26 313.92 1.67"/><polygon class="cls-1" points="377.85 38.98 339.06 38.98 319.67 72.57 339.06 106.16 377.85 106.16 397.24 72.57 377.85 38.98"/><polygon class="cls-1" points="377.99 113.24 339.2 113.24 319.81 146.83 339.2 180.42 377.99 180.42 397.38 146.83 377.99 113.24"/><polygon class="cls-1" points="441.92 75.93 403.13 75.93 383.74 109.52 403.13 143.11 441.92 143.11 461.31 109.52 441.92 75.93"/><polygon class="cls-1" points="505.84 113.24 467.06 113.24 447.67 146.83 467.06 180.42 505.84 180.42 525.24 146.83 505.84 113.24"/><polygon class="cls-1" points="505.79 38.62 467.01 38.62 447.61 72.21 467.01 105.8 505.79 105.8 525.19 72.21 505.79 38.62"/><polygon class="cls-1" points="186.05 151.08 147.26 151.08 127.87 184.67 147.26 218.26 186.05 218.26 205.44 184.67 186.05 151.08"/><polygon class="cls-1" points="313.74 151.08 274.96 151.08 255.56 184.67 274.96 218.26 313.74 218.26 333.14 184.67 313.74 151.08"/><polygon class="cls-1" points="377.85 187.57 339.06 187.57 319.67 221.16 339.06 254.75 377.85 254.75 397.24 221.16 377.85 187.57"/><polygon class="cls-1" points="441.92 150.72 403.13 150.72 383.74 184.31 403.13 217.9 441.92 217.9 461.31 184.31 441.92 150.72"/><polygon class="cls-1" points="440.92 1.14 402.13 1.14 382.74 34.72 402.13 68.31 440.92 68.31 460.31 34.72 440.92 1.14"/><polygon class="cls-1" points="571.13 225.79 532.35 225.79 512.95 259.38 532.35 292.97 571.13 292.97 590.53 259.38 571.13 225.79"/><polygon class="cls-1" points="571.13 151.17 532.35 151.17 512.95 184.76 532.35 218.35 571.13 218.35 590.53 184.76 571.13 151.17"/><polygon class="cls-1" points="635.06 188.48 596.28 188.48 576.88 222.07 596.28 255.66 635.06 255.66 654.46 222.07 635.06 188.48"/><polygon class="cls-1" points="571.21 300.4 532.43 300.4 513.03 333.99 532.43 367.58 571.21 367.58 590.61 333.99 571.21 300.4"/><polygon class="cls-1" points="635.14 263.1 596.36 263.1 576.96 296.69 596.36 330.27 635.14 330.27 654.53 296.69 635.14 263.1"/><polygon class="cls-1" points="699.07 300.4 660.28 300.4 640.89 333.99 660.28 367.58 699.07 367.58 718.46 333.99 699.07 300.4"/><polygon class="cls-1" points="699.02 225.79 660.23 225.79 640.84 259.38 660.23 292.97 699.02 292.97 718.41 259.38 699.02 225.79"/><polygon class="cls-1" points="762.95 263.1 724.16 263.1 704.77 296.69 724.16 330.27 762.95 330.27 782.34 296.69 762.95 263.1"/><polygon class="cls-1" points="762.95 188.48 724.16 188.48 704.77 222.07 724.16 255.66 762.95 255.66 782.34 222.07 762.95 188.48"/><polygon class="cls-1" points="826.88 225.79 788.09 225.79 768.7 259.38 788.09 292.97 826.88 292.97 846.27 259.38 826.88 225.79"/><polygon class="cls-1" points="827.01 300.04 788.23 300.04 768.83 333.63 788.23 367.22 827.01 367.22 846.4 333.63 827.01 300.04"/><polygon class="cls-1" points="890.94 262.74 852.15 262.74 832.76 296.33 852.15 329.92 890.94 329.92 910.33 296.33 890.94 262.74"/><polygon class="cls-1" points="954.87 300.04 916.08 300.04 896.69 333.63 916.08 367.22 954.87 367.22 974.26 333.63 954.87 300.04"/><polygon class="cls-1" points="954.82 225.43 916.03 225.43 896.64 259.02 916.03 292.61 954.82 292.61 974.21 259.02 954.82 225.43"/><polygon class="cls-1" points="1018.75 262.74 979.96 262.74 960.57 296.33 979.96 329.92 1018.75 329.92 1038.14 296.33 1018.75 262.74"/><polygon class="cls-1" points="1018.75 188.12 979.96 188.12 960.57 221.71 979.96 255.3 1018.75 255.3 1038.14 221.71 1018.75 188.12"/><polygon class="cls-1" points="570.25 76.2 531.47 76.2 512.07 109.79 531.47 143.38 570.25 143.38 589.64 109.79 570.25 76.2"/><polygon class="cls-1" points="570.2 1.58 531.41 1.58 512.02 35.17 531.41 68.76 570.2 68.76 589.59 35.17 570.2 1.58"/><polygon class="cls-1" points="634.13 38.89 595.34 38.89 575.95 72.48 595.34 106.07 634.13 106.07 653.52 72.48 634.13 38.89"/><polygon class="cls-1" points="698.06 1.58 659.27 1.58 639.88 35.17 659.27 68.76 698.06 68.76 717.45 35.17 698.06 1.58"/><polygon class="cls-1" points="634.21 113.51 595.42 113.51 576.03 147.09 595.42 180.69 634.21 180.69 653.6 147.09 634.21 113.51"/><polygon class="cls-1" points="698.14 76.2 659.35 76.2 639.96 109.79 659.35 143.38 698.14 143.38 717.53 109.79 698.14 76.2"/><polygon class="cls-1" points="762.07 113.51 723.28 113.51 703.89 147.09 723.28 180.69 762.07 180.69 781.46 147.09 762.07 113.51"/><polygon class="cls-1" points="762.02 38.89 723.23 38.89 703.84 72.48 723.23 106.07 762.02 106.07 781.41 72.48 762.02 38.89"/><polygon class="cls-1" points="825.95 76.2 787.16 76.2 767.77 109.79 787.16 143.38 825.95 143.38 845.34 109.79 825.95 76.2"/><polygon class="cls-1" points="825.95 1.58 787.16 1.58 767.77 35.17 787.16 68.76 825.95 68.76 845.34 35.17 825.95 1.58"/><polygon class="cls-1" points="889.87 38.89 851.09 38.89 831.7 72.48 851.09 106.07 889.87 106.07 909.27 72.48 889.87 38.89"/><polygon class="cls-1" points="890.01 113.15 851.22 113.15 831.83 146.74 851.22 180.33 890.01 180.33 909.4 146.74 890.01 113.15"/><polygon class="cls-1" points="953.94 75.84 915.15 75.84 895.76 109.43 915.15 143.02 953.94 143.02 973.33 109.43 953.94 75.84"/><polygon class="cls-1" points="1017.87 113.15 979.08 113.15 959.69 146.74 979.08 180.33 1017.87 180.33 1037.26 146.74 1017.87 113.15"/><polygon class="cls-1" points="1017.82 38.53 979.03 38.53 959.64 72.12 979.03 105.71 1017.82 105.71 1037.21 72.12 1017.82 38.53"/><polygon class="cls-1" points="698.07 150.99 659.28 150.99 639.89 184.58 659.28 218.17 698.07 218.17 717.46 184.58 698.07 150.99"/><polygon class="cls-1" points="825.77 150.99 786.98 150.99 767.59 184.58 786.98 218.17 825.77 218.17 845.16 184.58 825.77 150.99"/><polygon class="cls-1" points="889.87 187.48 851.09 187.48 831.7 221.07 851.09 254.66 889.87 254.66 909.27 221.07 889.87 187.48"/><polygon class="cls-1" points="953.94 150.63 915.15 150.63 895.76 184.22 915.15 217.81 953.94 217.81 973.33 184.22 953.94 150.63"/><polygon class="cls-1" points="952.94 1.04 914.15 1.04 894.76 34.63 914.15 68.22 952.94 68.22 972.33 34.63 952.94 1.04"/><polygon class="cls-1" points="1083 224.74 1044.22 224.74 1024.82 258.33 1044.22 291.92 1083 291.92 1102.39 258.33 1083 224.74"/><polygon class="cls-1" points="1083 150.13 1044.22 150.13 1024.82 183.72 1044.22 217.31 1083 217.31 1102.39 183.72 1083 150.13"/><polygon class="cls-1" points="1146.93 187.44 1108.14 187.44 1088.75 221.03 1108.14 254.61 1146.93 254.61 1166.32 221.03 1146.93 187.44"/><polygon class="cls-1" points="1083.08 299.36 1044.3 299.36 1024.9 332.95 1044.3 366.54 1083.08 366.54 1102.47 332.95 1083.08 299.36"/><polygon class="cls-1" points="1147.01 262.05 1108.22 262.05 1088.83 295.64 1108.22 329.23 1147.01 329.23 1166.4 295.64 1147.01 262.05"/><polygon class="cls-1" points="1210.94 299.36 1172.15 299.36 1152.76 332.95 1172.15 366.54 1210.94 366.54 1230.33 332.95 1210.94 299.36"/><polygon class="cls-1" points="1210.89 224.74 1172.1 224.74 1152.71 258.33 1172.1 291.92 1210.89 291.92 1230.28 258.33 1210.89 224.74"/><polygon class="cls-1" points="1274.82 262.05 1236.03 262.05 1216.64 295.64 1236.03 329.23 1274.82 329.23 1294.21 295.64 1274.82 262.05"/><polygon class="cls-1" points="1274.82 187.44 1236.03 187.44 1216.64 221.03 1236.03 254.61 1274.82 254.61 1294.21 221.03 1274.82 187.44"/><polygon class="cls-1" points="1338.75 224.74 1299.96 224.74 1280.57 258.33 1299.96 291.92 1338.75 291.92 1358.14 258.33 1338.75 224.74"/><polygon class="cls-1" points="1338.88 299 1300.1 299 1280.7 332.59 1300.1 366.18 1338.88 366.18 1358.27 332.59 1338.88 299"/><polygon class="cls-1" points="1402.81 261.69 1364.02 261.69 1344.63 295.28 1364.02 328.87 1402.81 328.87 1422.2 295.28 1402.81 261.69"/><polygon class="cls-1" points="1466.74 299 1427.95 299 1408.56 332.59 1427.95 366.18 1466.74 366.18 1486.13 332.59 1466.74 299"/><polygon class="cls-1" points="1466.69 224.38 1427.9 224.38 1408.51 257.97 1427.9 291.56 1466.69 291.56 1486.08 257.97 1466.69 224.38"/><polygon class="cls-1" points="1082.12 75.15 1043.33 75.15 1023.94 108.74 1043.33 142.33 1082.12 142.33 1101.51 108.74 1082.12 75.15"/><polygon class="cls-1" points="1082.07 0.54 1043.28 0.54 1023.89 34.13 1043.28 67.72 1082.07 67.72 1101.46 34.13 1082.07 0.54"/><polygon class="cls-1" points="1146 37.85 1107.21 37.85 1087.82 71.44 1107.21 105.03 1146 105.03 1165.39 71.44 1146 37.85"/><polygon class="cls-1" points="1209.93 0.54 1171.14 0.54 1151.75 34.13 1171.14 67.72 1209.93 67.72 1229.32 34.13 1209.93 0.54"/><polygon class="cls-1" points="1146.08 112.46 1107.29 112.46 1087.9 146.05 1107.29 179.64 1146.08 179.64 1165.47 146.05 1146.08 112.46"/><polygon class="cls-1" points="1210.01 75.15 1171.22 75.15 1151.83 108.74 1171.22 142.33 1210.01 142.33 1229.4 108.74 1210.01 75.15"/><polygon class="cls-1" points="1273.94 112.46 1235.15 112.46 1215.76 146.05 1235.15 179.64 1273.94 179.64 1293.33 146.05 1273.94 112.46"/><polygon class="cls-1" points="1273.88 37.85 1235.1 37.85 1215.71 71.44 1235.1 105.03 1273.88 105.03 1293.28 71.44 1273.88 37.85"/><polygon class="cls-1" points="1337.81 75.15 1299.03 75.15 1279.63 108.74 1299.03 142.33 1337.81 142.33 1357.21 108.74 1337.81 75.15"/><polygon class="cls-1" points="1337.81 0.54 1299.03 0.54 1279.63 34.13 1299.03 67.72 1337.81 67.72 1357.21 34.13 1337.81 0.54"/><polygon class="cls-1" points="1401.74 37.85 1362.96 37.85 1343.56 71.44 1362.96 105.03 1401.74 105.03 1421.13 71.44 1401.74 37.85"/><polygon class="cls-1" points="1401.88 112.1 1363.09 112.1 1343.7 145.69 1363.09 179.28 1401.88 179.28 1421.27 145.69 1401.88 112.1"/><polygon class="cls-1" points="1465.81 74.8 1427.02 74.8 1407.63 108.38 1427.02 141.97 1465.81 141.97 1485.2 108.38 1465.81 74.8"/><polygon class="cls-1" points="1209.94 149.95 1171.15 149.95 1151.76 183.54 1171.15 217.13 1209.94 217.13 1229.33 183.54 1209.94 149.95"/><polygon class="cls-1" points="1337.63 149.95 1298.85 149.95 1279.46 183.54 1298.85 217.13 1337.63 217.13 1357.03 183.54 1337.63 149.95"/><polygon class="cls-1" points="1401.74 186.44 1362.96 186.44 1343.56 220.03 1362.96 253.61 1401.74 253.61 1421.13 220.03 1401.74 186.44"/><polygon class="cls-1" points="1465.81 149.59 1427.02 149.59 1407.63 183.18 1427.02 216.77 1465.81 216.77 1485.2 183.18 1465.81 149.59"/><polygon class="cls-1" points="1464.81 0 1426.02 0 1406.63 33.59 1426.02 67.18 1464.81 67.18 1484.2 33.59 1464.81 0"/></g></g></svg>