<svg xmlns="http://www.w3.org/2000/svg" viewBox="0 0 1332.57 671.47"><defs><style>.cls-1{fill:#a3bac3;}</style></defs><g id="Layer_2" data-name="Layer 2"><g id="Layer_6" data-name="Layer 6"><polygon class="cls-1" points="111.09 525.96 72.31 525.96 52.92 559.55 72.31 593.14 111.09 593.14 130.49 559.55 111.09 525.96"/><polygon class="cls-1" points="111.18 600.58 72.39 600.58 53 634.16 72.39 667.75 111.18 667.75 130.57 634.16 111.18 600.58"/><polygon class="cls-1" points="175.05 563.27 136.27 563.27 116.88 596.86 136.27 630.45 175.05 630.45 194.45 596.86 175.05 563.27"/><polygon class="cls-1" points="238.98 600.58 200.2 600.58 180.8 634.16 200.2 667.75 238.98 667.75 258.38 634.16 238.98 600.58"/><polygon class="cls-1" points="238.98 525.96 200.2 525.96 180.8 559.55 200.2 593.14 238.98 593.14 258.38 559.55 238.98 525.96"/><polygon class="cls-1" points="302.91 563.27 264.13 563.27 244.73 596.86 264.13 630.45 302.91 630.45 322.3 596.86 302.91 563.27"/><polygon class="cls-1" points="366.98 600.22 328.19 600.22 308.8 633.81 328.19 667.39 366.98 667.39 386.37 633.81 366.98 600.22"/><polygon class="cls-1" points="430.85 562.91 392.07 562.91 372.67 596.5 392.07 630.09 430.85 630.09 450.25 596.5 430.85 562.91"/><polygon class="cls-1" points="494.78 600.22 456 600.22 436.6 633.81 456 667.39 494.78 667.39 514.17 633.81 494.78 600.22"/><polygon class="cls-1" points="494.78 525.6 456 525.6 436.6 559.19 456 592.78 494.78 592.78 514.17 559.19 494.78 525.6"/><polygon class="cls-1" points="110.16 376.37 71.38 376.37 51.98 409.96 71.38 443.55 110.16 443.55 129.56 409.96 110.16 376.37"/><polygon class="cls-1" points="174.09 339.06 135.31 339.06 115.91 372.65 135.31 406.24 174.09 406.24 193.48 372.65 174.09 339.06"/><polygon class="cls-1" points="110.24 450.99 71.46 450.99 52.06 484.57 71.46 518.16 110.24 518.16 129.64 484.57 110.24 450.99"/><polygon class="cls-1" points="174.17 413.68 135.39 413.68 115.99 447.27 135.39 480.86 174.17 480.86 193.56 447.27 174.17 413.68"/><polygon class="cls-1" points="238.1 450.99 199.31 450.99 179.92 484.57 199.31 518.16 238.1 518.16 257.49 484.57 238.1 450.99"/><polygon class="cls-1" points="238.05 376.37 199.26 376.37 179.87 409.96 199.26 443.55 238.05 443.55 257.44 409.96 238.05 376.37"/><polygon class="cls-1" points="301.98 413.68 263.19 413.68 243.8 447.27 263.19 480.86 301.98 480.86 321.37 447.27 301.98 413.68"/><polygon class="cls-1" points="301.98 339.06 263.19 339.06 243.8 372.65 263.19 406.24 301.98 406.24 321.37 372.65 301.98 339.06"/><polygon class="cls-1" points="365.91 376.37 327.12 376.37 307.73 409.96 327.12 443.55 365.91 443.55 385.3 409.96 365.91 376.37"/><polygon class="cls-1" points="366.04 450.63 327.26 450.63 307.86 484.22 327.26 517.81 366.04 517.81 385.44 484.22 366.04 450.63"/><polygon class="cls-1" points="429.97 413.32 391.19 413.32 371.79 446.91 391.19 480.5 429.97 480.5 449.36 446.91 429.97 413.32"/><polygon class="cls-1" points="493.9 450.63 455.11 450.63 435.72 484.22 455.11 517.81 493.9 517.81 513.29 484.22 493.9 450.63"/><polygon class="cls-1" points="493.85 376.01 455.06 376.01 435.67 409.6 455.06 443.19 493.85 443.19 513.24 409.6 493.85 376.01"/><polygon class="cls-1" points="174.1 488.47 135.32 488.47 115.93 522.06 135.32 555.65 174.1 555.65 193.5 522.06 174.1 488.47"/><polygon class="cls-1" points="301.8 488.47 263.01 488.47 243.62 522.06 263.01 555.65 301.8 555.65 321.19 522.06 301.8 488.47"/><polygon class="cls-1" points="365.91 524.96 327.12 524.96 307.73 558.55 327.12 592.14 365.91 592.14 385.3 558.55 365.91 524.96"/><polygon class="cls-1" points="429.97 488.11 391.19 488.11 371.79 521.7 391.19 555.29 429.97 555.29 449.36 521.7 429.97 488.11"/><polygon class="cls-1" points="428.97 338.52 390.19 338.52 370.79 372.11 390.19 405.7 428.97 405.7 448.36 372.11 428.97 338.52"/><polygon class="cls-1" points="559.19 563.18 520.4 563.18 501.01 596.77 520.4 630.36 559.19 630.36 578.58 596.77 559.19 563.18"/><polygon class="cls-1" points="559.19 488.56 520.4 488.56 501.01 522.15 520.4 555.74 559.19 555.74 578.58 522.15 559.19 488.56"/><polygon class="cls-1" points="623.12 525.87 584.33 525.87 564.94 559.46 584.33 593.05 623.12 593.05 642.51 559.46 623.12 525.87"/><polygon class="cls-1" points="623.2 600.49 584.41 600.49 565.02 634.08 584.41 667.66 623.2 667.66 642.59 634.08 623.2 600.49"/><polyline class="cls-1" points="687.08 563.18 648.29 563.18 628.9 596.77 648.29 630.36 687.08 630.36"/><polygon class="cls-1" points="558.31 413.59 519.52 413.59 500.13 447.18 519.52 480.77 558.31 480.77 577.7 447.18 558.31 413.59"/><polygon class="cls-1" points="558.26 338.97 519.47 338.97 500.08 372.56 519.47 406.15 558.26 406.15 577.65 372.56 558.26 338.97"/><polygon class="cls-1" points="622.18 376.28 583.4 376.28 564.01 409.87 583.4 443.46 622.18 443.46 641.58 409.87 622.18 376.28"/><polyline class="cls-1" points="686.11 338.97 647.33 338.97 627.93 372.56 647.33 406.15 686.11 406.15"/><polygon class="cls-1" points="622.27 450.9 583.48 450.9 564.09 484.49 583.48 518.08 622.27 518.08 641.66 484.49 622.27 450.9"/><polyline class="cls-1" points="686.19 413.59 647.41 413.59 628.02 447.18 647.41 480.77 686.19 480.77"/><polyline class="cls-1" points="686.13 488.38 647.34 488.38 627.95 521.97 647.34 555.56 686.13 555.56"/><polyline class="cls-1" points="128.9 334.87 109.51 368.46 70.72 368.46 51.33 334.87"/><polyline class="cls-1" points="256.76 334.87 237.37 368.46 198.58 368.46 179.19 334.87"/><polyline class="cls-1" points="384.64 334.87 365.25 368.46 326.47 368.46 307.07 334.87"/><polyline class="cls-1" points="511.64 335.41 492.25 369 453.46 369 434.07 335.41"/><polyline class="cls-1" points="640.92 334.96 621.53 368.55 582.75 368.55 563.35 334.96"/><polyline class="cls-1" points="129.51 338 110.12 304.41 71.34 304.41 51.94 338"/><polyline class="cls-1" points="257.37 338 237.98 304.41 199.19 304.41 179.8 338"/><polyline class="cls-1" points="385.26 338 365.87 304.41 327.08 304.41 307.69 338"/><polyline class="cls-1" points="512.25 337.46 492.86 303.88 454.07 303.88 434.68 337.46"/><polyline class="cls-1" points="641.54 337.91 622.14 304.32 583.36 304.32 563.97 337.91"/><polygon class="cls-1" points="109.58 222.81 128.98 189.22 109.58 155.63 70.8 155.63 51.41 189.22 70.8 222.81 109.58 222.81"/><polygon class="cls-1" points="109.67 230.25 70.88 230.25 51.49 263.83 70.88 297.42 109.67 297.42 129.06 263.83 109.67 230.25"/><polygon class="cls-1" points="134.81 267.55 115.42 301.14 134.81 334.73 173.59 334.73 192.99 301.14 173.59 267.55 134.81 267.55"/><polygon class="cls-1" points="173.54 260.12 192.94 226.53 173.54 192.94 134.76 192.94 115.36 226.53 134.76 260.12 173.54 260.12"/><polygon class="cls-1" points="237.47 230.25 198.69 230.25 179.29 263.83 198.69 297.42 237.47 297.42 256.87 263.83 237.47 230.25"/><polygon class="cls-1" points="237.47 222.81 256.87 189.22 237.47 155.63 198.69 155.63 179.29 189.22 198.69 222.81 237.47 222.81"/><polygon class="cls-1" points="301.4 260.12 320.79 226.53 301.4 192.94 262.62 192.94 243.22 226.53 262.62 260.12 301.4 260.12"/><polygon class="cls-1" points="262.75 267.19 243.36 300.78 262.75 334.37 301.54 334.37 320.93 300.78 301.54 267.19 262.75 267.19"/><polygon class="cls-1" points="365.46 229.89 326.68 229.89 307.29 263.48 326.68 297.06 365.46 297.06 384.86 263.48 365.46 229.89"/><polygon class="cls-1" points="390.61 267.19 371.21 300.78 390.61 334.37 429.39 334.37 448.79 300.78 429.39 267.19 390.61 267.19"/><polygon class="cls-1" points="429.34 259.76 448.74 226.17 429.34 192.58 390.56 192.58 371.16 226.17 390.56 259.76 429.34 259.76"/><polygon class="cls-1" points="493.27 229.89 454.49 229.89 435.09 263.48 454.49 297.06 493.27 297.06 512.66 263.48 493.27 229.89"/><polygon class="cls-1" points="493.27 222.45 512.66 188.86 493.27 155.27 454.49 155.27 435.09 188.86 454.49 222.45 493.27 222.45"/><polygon class="cls-1" points="69.87 6.04 50.47 39.63 69.87 73.22 108.65 73.22 128.05 39.63 108.65 6.04 69.87 6.04"/><polygon class="cls-1" points="114.4 2.32 133.8 35.91 172.58 35.91 191.97 2.32 191.01 0.65 115.37 0.65 114.4 2.32"/><polygon class="cls-1" points="69.95 80.66 50.55 114.25 69.95 147.84 108.73 147.84 128.13 114.25 108.73 80.66 69.95 80.66"/><polygon class="cls-1" points="133.88 43.35 114.48 76.94 133.88 110.53 172.66 110.53 192.06 76.94 172.66 43.35 133.88 43.35"/><polygon class="cls-1" points="197.81 80.66 178.41 114.25 197.81 147.84 236.59 147.84 255.98 114.25 236.59 80.66 197.81 80.66"/><polygon class="cls-1" points="197.75 6.04 178.36 39.63 197.75 73.22 236.54 73.22 255.93 39.63 236.54 6.04 197.75 6.04"/><polygon class="cls-1" points="261.68 43.35 242.29 76.94 261.68 110.53 300.47 110.53 319.86 76.94 300.47 43.35 261.68 43.35"/><polygon class="cls-1" points="242.29 2.32 261.68 35.91 300.47 35.91 319.86 2.32 318.9 0.65 243.25 0.65 242.29 2.32"/><polygon class="cls-1" points="325.61 6.04 306.22 39.63 325.61 73.22 364.4 73.22 383.79 39.63 364.4 6.04 325.61 6.04"/><polygon class="cls-1" points="325.75 80.3 306.35 113.89 325.75 147.48 364.53 147.48 383.93 113.89 364.53 80.3 325.75 80.3"/><polygon class="cls-1" points="389.68 42.99 370.28 76.58 389.68 110.17 428.46 110.17 447.85 76.58 428.46 42.99 389.68 42.99"/><polygon class="cls-1" points="453.6 80.3 434.21 113.89 453.6 147.48 492.39 147.48 511.78 113.89 492.39 80.3 453.6 80.3"/><polygon class="cls-1" points="453.55 5.68 434.16 39.27 453.55 72.86 492.34 72.86 511.73 39.27 492.34 5.68 453.55 5.68"/><polygon class="cls-1" points="133.81 118.14 114.42 151.73 133.81 185.32 172.59 185.32 191.99 151.73 172.59 118.14 133.81 118.14"/><polygon class="cls-1" points="261.5 118.14 242.11 151.73 261.5 185.32 300.29 185.32 319.68 151.73 300.29 118.14 261.5 118.14"/><polygon class="cls-1" points="364.4 221.81 383.79 188.22 364.4 154.63 325.61 154.63 306.22 188.22 325.61 221.81 364.4 221.81"/><polygon class="cls-1" points="389.68 117.78 370.28 151.37 389.68 184.96 428.46 184.96 447.85 151.37 428.46 117.78 389.68 117.78"/><polygon class="cls-1" points="369.28 1.78 388.68 35.37 427.46 35.37 446.85 1.78 446.2 0.65 369.94 0.65 369.28 1.78"/><polygon class="cls-1" points="557.68 260.03 577.07 226.44 557.68 192.85 518.89 192.85 499.5 226.44 518.89 260.03 557.68 260.03"/><polygon class="cls-1" points="518.89 118.23 499.5 151.82 518.89 185.41 557.68 185.41 577.07 151.82 557.68 118.23 518.89 118.23"/><polygon class="cls-1" points="621.61 222.72 641 189.13 621.61 155.54 582.82 155.54 563.43 189.13 582.82 222.72 621.61 222.72"/><polygon class="cls-1" points="518.97 267.46 499.58 301.05 518.97 334.64 557.76 334.64 577.15 301.05 557.76 267.46 518.97 267.46"/><polygon class="cls-1" points="621.69 230.16 582.9 230.16 563.51 263.75 582.9 297.33 621.69 297.33 641.08 263.75 621.69 230.16"/><polyline class="cls-1" points="685.62 267.46 646.83 267.46 627.44 301.05 646.83 334.64 685.62 334.64"/><polyline class="cls-1" points="685.57 192.85 646.78 192.85 627.39 226.44 646.78 260.03 685.57 260.03"/><polygon class="cls-1" points="518.01 43.26 498.62 76.85 518.01 110.44 556.8 110.44 576.19 76.85 556.8 43.26 518.01 43.26"/><polygon class="cls-1" points="498.57 2.23 517.96 35.82 556.75 35.82 576.14 2.23 575.23 0.65 499.48 0.65 498.57 2.23"/><polygon class="cls-1" points="581.89 5.95 562.5 39.54 581.89 73.13 620.67 73.13 640.07 39.54 620.67 5.95 581.89 5.95"/><polyline class="cls-1" points="703.08 0.65 627.34 0.65 626.42 2.23 645.82 35.82 684.6 35.82"/><polygon class="cls-1" points="581.97 80.57 562.58 114.16 581.97 147.75 620.76 147.75 640.15 114.16 620.76 80.57 581.97 80.57"/><polyline class="cls-1" points="684.68 43.26 645.9 43.26 626.51 76.85 645.9 110.44 684.68 110.44"/><polyline class="cls-1" points="684.62 118.05 645.83 118.05 626.44 151.64 645.83 185.23 684.62 185.23"/><line class="cls-1" x1="115.37" y1="0.65" x2="191.01" y2="0.65"/><line class="cls-1" x1="243.26" y1="0.65" x2="318.9" y2="0.65"/><line class="cls-1" x1="369.94" y1="0.65" x2="446.2" y2="0.65"/><line class="cls-1" x1="499.48" y1="0.65" x2="575.23" y2="0.65"/><line class="cls-1" x1="627.34" y1="0.65" x2="703.08" y2="0.65"/><polygon class="cls-1" points="8.38 630.45 47.17 630.45 66.56 596.86 47.17 563.27 8.38 563.27 0 577.78 0 615.93 8.38 630.45"/><polygon class="cls-1" points="8.38 555.83 47.17 555.83 66.56 522.24 47.17 488.65 8.38 488.65 0 503.17 0 541.32 8.38 555.83"/><polygon class="cls-1" points="7.5 480.86 46.28 480.86 65.68 447.27 46.28 413.68 7.5 413.68 0 426.67 0 467.87 7.5 480.86"/><polygon class="cls-1" points="7.45 406.24 46.23 406.24 65.63 372.65 46.23 339.06 7.45 339.06 0 351.96 0 393.34 7.45 406.24"/><polygon class="cls-1" points="6.87 260.12 45.66 260.12 65.05 226.53 45.66 192.94 6.87 192.94 0 204.84 0 248.22 6.87 260.12"/><polygon class="cls-1" points="6.87 185.5 45.66 185.5 65.05 151.91 45.66 118.32 6.87 118.32 0 130.22 0 173.6 6.87 185.5"/><polygon class="cls-1" points="6.95 334.73 45.74 334.73 65.13 301.14 45.74 267.55 6.95 267.55 0 279.59 0 322.69 6.95 334.73"/><polygon class="cls-1" points="5.99 110.53 44.77 110.53 64.17 76.94 44.77 43.35 5.99 43.35 0 53.72 0 100.15 5.99 110.53"/><polygon class="cls-1" points="5.94 35.91 44.72 35.91 64.12 2.32 63.15 0.65 0 0.65 0 25.63 5.94 35.91"/><polygon class="cls-1" points="175.1 637.88 136.32 637.88 116.93 671.47 194.5 671.47 175.1 637.88"/><polygon class="cls-1" points="322.44 671.11 303.05 637.52 264.26 637.52 244.87 671.11 245.07 671.47 322.23 671.47 322.44 671.11"/><polygon class="cls-1" points="450.3 671.11 430.9 637.52 392.12 637.52 372.72 671.11 372.93 671.47 450.09 671.47 450.3 671.11"/><polygon class="cls-1" points="578.66 671.38 559.27 637.79 520.48 637.79 501.09 671.38 501.14 671.47 578.61 671.47 578.66 671.38"/><polyline class="cls-1" points="687.13 637.79 648.34 637.79 628.95 671.38 629 671.47 706.47 671.47"/><polygon class="cls-1" points="47.25 637.88 8.46 637.88 0 652.54 0 671.47 66.64 671.47 47.25 637.88"/><line class="cls-1" x1="194.5" y1="671.47" x2="116.93" y2="671.47"/><line class="cls-1" x1="322.23" y1="671.47" x2="245.07" y2="671.47"/><line class="cls-1" x1="450.09" y1="671.47" x2="372.93" y2="671.47"/><line class="cls-1" x1="578.61" y1="671.47" x2="501.14" y2="671.47"/><line class="cls-1" x1="706.47" y1="671.47" x2="629" y2="671.47"/><polygon class="cls-1" points="1221.47 525.31 1260.26 525.31 1279.65 558.9 1260.26 592.49 1221.47 592.49 1202.08 558.9 1221.47 525.31"/><polygon class="cls-1" points="1221.39 599.93 1260.18 599.93 1279.57 633.51 1260.18 667.11 1221.39 667.11 1202 633.51 1221.39 599.93"/><polygon class="cls-1" points="1157.51 562.62 1196.3 562.62 1215.69 596.21 1196.3 629.8 1157.51 629.8 1138.12 596.21 1157.51 562.62"/><polygon class="cls-1" points="1093.59 599.93 1132.37 599.93 1151.76 633.51 1132.37 667.11 1093.59 667.11 1074.19 633.51 1093.59 599.93"/><polygon class="cls-1" points="1093.59 525.31 1132.37 525.31 1151.76 558.9 1132.37 592.49 1093.59 592.49 1074.19 558.9 1093.59 525.31"/><polygon class="cls-1" points="1029.66 562.62 1068.44 562.62 1087.84 596.21 1068.44 629.8 1029.66 629.8 1010.26 596.21 1029.66 562.62"/><polygon class="cls-1" points="965.59 599.57 1004.38 599.57 1023.77 633.16 1004.38 666.75 965.59 666.75 946.2 633.16 965.59 599.57"/><polygon class="cls-1" points="901.72 562.26 940.5 562.26 959.89 595.85 940.5 629.44 901.72 629.44 882.32 595.85 901.72 562.26"/><polygon class="cls-1" points="837.79 599.57 876.57 599.57 895.97 633.16 876.57 666.75 837.79 666.75 818.39 633.16 837.79 599.57"/><polygon class="cls-1" points="837.79 524.95 876.57 524.95 895.97 558.54 876.57 592.13 837.79 592.13 818.39 558.54 837.79 524.95"/><polygon class="cls-1" points="1222.4 375.72 1261.19 375.72 1280.58 409.31 1261.19 442.9 1222.4 442.9 1203.01 409.31 1222.4 375.72"/><polygon class="cls-1" points="1158.48 338.41 1197.26 338.41 1216.65 372 1197.26 405.59 1158.48 405.59 1139.08 372 1158.48 338.41"/><polygon class="cls-1" points="1222.32 450.34 1261.11 450.34 1280.5 483.93 1261.11 517.51 1222.32 517.51 1202.93 483.93 1222.32 450.34"/><polygon class="cls-1" points="1158.39 413.03 1197.18 413.03 1216.57 446.62 1197.18 480.21 1158.39 480.21 1139 446.62 1158.39 413.03"/><polygon class="cls-1" points="1094.47 450.34 1133.25 450.34 1152.64 483.93 1133.25 517.51 1094.47 517.51 1075.07 483.93 1094.47 450.34"/><polygon class="cls-1" points="1094.52 375.72 1133.3 375.72 1152.7 409.31 1133.3 442.9 1094.52 442.9 1075.13 409.31 1094.52 375.72"/><polygon class="cls-1" points="1030.59 413.03 1069.38 413.03 1088.77 446.62 1069.38 480.21 1030.59 480.21 1011.2 446.62 1030.59 413.03"/><polygon class="cls-1" points="1030.59 338.41 1069.38 338.41 1088.77 372 1069.38 405.59 1030.59 405.59 1011.2 372 1030.59 338.41"/><polygon class="cls-1" points="966.66 375.72 1005.45 375.72 1024.84 409.31 1005.45 442.9 966.66 442.9 947.27 409.31 966.66 375.72"/><polygon class="cls-1" points="966.52 449.98 1005.31 449.98 1024.7 483.57 1005.31 517.16 966.52 517.16 947.13 483.57 966.52 449.98"/><polygon class="cls-1" points="902.6 412.67 941.38 412.67 960.77 446.26 941.38 479.85 902.6 479.85 883.2 446.26 902.6 412.67"/><polygon class="cls-1" points="838.67 449.98 877.45 449.98 896.85 483.57 877.45 517.16 838.67 517.16 819.27 483.57 838.67 449.98"/><polygon class="cls-1" points="838.72 375.36 877.5 375.36 896.9 408.95 877.5 442.54 838.72 442.54 819.33 408.95 838.72 375.36"/><polygon class="cls-1" points="1158.46 487.82 1197.25 487.82 1216.64 521.41 1197.25 555 1158.46 555 1139.07 521.41 1158.46 487.82"/><polygon class="cls-1" points="1030.77 487.82 1069.55 487.82 1088.95 521.41 1069.55 555 1030.77 555 1011.38 521.41 1030.77 487.82"/><polygon class="cls-1" points="966.66 524.31 1005.45 524.31 1024.84 557.9 1005.45 591.49 966.66 591.49 947.27 557.9 966.66 524.31"/><polygon class="cls-1" points="902.6 487.46 941.38 487.46 960.77 521.05 941.38 554.64 902.6 554.64 883.2 521.05 902.6 487.46"/><polygon class="cls-1" points="903.6 337.88 942.38 337.88 961.77 371.46 942.38 405.05 903.6 405.05 884.2 371.46 903.6 337.88"/><polygon class="cls-1" points="773.38 562.53 812.16 562.53 831.56 596.12 812.16 629.71 773.38 629.71 753.99 596.12 773.38 562.53"/><polygon class="cls-1" points="773.38 487.91 812.16 487.91 831.56 521.5 812.16 555.09 773.38 555.09 753.99 521.5 773.38 487.91"/><polygon class="cls-1" points="709.45 525.22 748.24 525.22 767.63 558.81 748.24 592.4 709.45 592.4 690.06 558.81 709.45 525.22"/><polygon class="cls-1" points="709.37 599.84 748.15 599.84 767.55 633.42 748.15 667.01 709.37 667.01 689.98 633.42 709.37 599.84"/><polyline class="cls-1" points="684.28 562.53 703.67 596.12 684.28 629.71 645.49 629.71"/><polygon class="cls-1" points="774.26 412.94 813.05 412.94 832.44 446.53 813.05 480.12 774.26 480.12 754.87 446.53 774.26 412.94"/><polygon class="cls-1" points="774.31 338.32 813.1 338.32 832.49 371.91 813.1 405.5 774.31 405.5 754.92 371.91 774.31 338.32"/><polygon class="cls-1" points="710.38 375.63 749.17 375.63 768.56 409.22 749.17 442.81 710.38 442.81 690.99 409.22 710.38 375.63"/><polyline class="cls-1" points="646.45 338.32 685.24 338.32 704.63 371.91 685.24 405.5 646.45 405.5"/><polygon class="cls-1" points="710.3 450.25 749.09 450.25 768.48 483.84 749.09 517.42 710.3 517.42 690.91 483.84 710.3 450.25"/><polyline class="cls-1" points="646.37 412.94 685.16 412.94 704.55 446.53 685.16 480.12 646.37 480.12"/><polyline class="cls-1" points="646.44 487.73 685.23 487.73 704.62 521.32 685.23 554.91 646.44 554.91"/><polyline class="cls-1" points="1203.67 334.22 1223.06 367.81 1261.85 367.81 1281.24 334.22"/><polyline class="cls-1" points="1075.81 334.22 1095.2 367.81 1133.99 367.81 1153.38 334.22"/><polyline class="cls-1" points="947.92 334.22 967.32 367.81 1006.1 367.81 1025.49 334.22"/><polyline class="cls-1" points="820.93 334.76 840.32 368.35 879.11 368.35 898.5 334.76"/><polyline class="cls-1" points="691.64 334.31 711.04 367.9 749.82 367.9 769.22 334.31"/><polyline class="cls-1" points="1203.05 337.35 1222.45 303.76 1261.23 303.76 1280.62 337.35"/><polyline class="cls-1" points="1075.2 337.35 1094.59 303.76 1133.37 303.76 1152.77 337.35"/><polyline class="cls-1" points="947.31 337.35 966.7 303.76 1005.49 303.76 1024.88 337.35"/><polyline class="cls-1" points="820.32 336.81 839.71 303.23 878.5 303.23 897.89 336.81"/><polyline class="cls-1" points="691.03 337.26 710.42 303.67 749.21 303.67 768.6 337.26"/><polygon class="cls-1" points="1222.98 222.16 1203.59 188.57 1222.98 154.98 1261.77 154.98 1281.16 188.57 1261.77 222.16 1222.98 222.16"/><polygon class="cls-1" points="1222.9 229.59 1261.69 229.59 1281.08 263.19 1261.69 296.77 1222.9 296.77 1203.51 263.19 1222.9 229.59"/><polygon class="cls-1" points="1197.76 266.9 1217.15 300.49 1197.76 334.08 1158.97 334.08 1139.58 300.49 1158.97 266.9 1197.76 266.9"/><polygon class="cls-1" points="1159.02 259.47 1139.63 225.88 1159.02 192.29 1197.81 192.29 1217.2 225.88 1197.81 259.47 1159.02 259.47"/><polygon class="cls-1" points="1095.1 229.59 1133.88 229.59 1153.27 263.19 1133.88 296.77 1095.1 296.77 1075.7 263.19 1095.1 229.59"/><polygon class="cls-1" points="1095.1 222.16 1075.7 188.57 1095.1 154.98 1133.88 154.98 1153.27 188.57 1133.88 222.16 1095.1 222.16"/><polygon class="cls-1" points="1031.17 259.47 1011.77 225.88 1031.17 192.29 1069.95 192.29 1089.35 225.88 1069.95 259.47 1031.17 259.47"/><polygon class="cls-1" points="1069.82 266.54 1089.21 300.13 1069.82 333.72 1031.03 333.72 1011.64 300.13 1031.03 266.54 1069.82 266.54"/><polygon class="cls-1" points="967.1 229.24 1005.89 229.24 1025.28 262.83 1005.89 296.42 967.1 296.42 947.71 262.83 967.1 229.24"/><polygon class="cls-1" points="941.96 266.54 961.35 300.13 941.96 333.72 903.17 333.72 883.78 300.13 903.17 266.54 941.96 266.54"/><polygon class="cls-1" points="903.23 259.11 883.83 225.52 903.23 191.93 942.01 191.93 961.4 225.52 942.01 259.11 903.23 259.11"/><polygon class="cls-1" points="839.3 229.24 878.08 229.24 897.48 262.83 878.08 296.42 839.3 296.42 819.9 262.83 839.3 229.24"/><polygon class="cls-1" points="839.3 221.8 819.9 188.21 839.3 154.62 878.08 154.62 897.48 188.21 878.08 221.8 839.3 221.8"/><polygon class="cls-1" points="1262.7 5.39 1282.09 38.98 1262.7 72.57 1223.91 72.57 1204.52 38.98 1223.91 5.39 1262.7 5.39"/><polygon class="cls-1" points="1218.16 1.67 1198.77 35.26 1159.99 35.26 1140.59 1.67 1141.56 0 1217.2 0 1218.16 1.67"/><polygon class="cls-1" points="1262.62 80.01 1282.01 113.59 1262.62 147.19 1223.83 147.19 1204.44 113.59 1223.83 80.01 1262.62 80.01"/><polygon class="cls-1" points="1198.69 42.7 1218.08 76.29 1198.69 109.88 1159.9 109.88 1140.51 76.29 1159.9 42.7 1198.69 42.7"/><polygon class="cls-1" points="1134.76 80.01 1154.15 113.59 1134.76 147.19 1095.98 147.19 1076.58 113.59 1095.98 80.01 1134.76 80.01"/><polygon class="cls-1" points="1134.81 5.39 1154.21 38.98 1134.81 72.57 1096.03 72.57 1076.63 38.98 1096.03 5.39 1134.81 5.39"/><polygon class="cls-1" points="1070.88 42.7 1090.28 76.29 1070.88 109.88 1032.1 109.88 1012.71 76.29 1032.1 42.7 1070.88 42.7"/><polygon class="cls-1" points="1090.28 1.67 1070.88 35.26 1032.1 35.26 1012.71 1.67 1013.67 0 1089.31 0 1090.28 1.67"/><polygon class="cls-1" points="1006.96 5.39 1026.35 38.98 1006.96 72.57 968.17 72.57 948.78 38.98 968.17 5.39 1006.96 5.39"/><polygon class="cls-1" points="1006.82 79.65 1026.21 113.24 1006.82 146.83 968.03 146.83 948.64 113.24 968.03 79.65 1006.82 79.65"/><polygon class="cls-1" points="942.89 42.34 962.28 75.93 942.89 109.52 904.11 109.52 884.71 75.93 904.11 42.34 942.89 42.34"/><polygon class="cls-1" points="878.96 79.65 898.36 113.24 878.96 146.83 840.18 146.83 820.78 113.24 840.18 79.65 878.96 79.65"/><polygon class="cls-1" points="879.01 5.03 898.41 38.62 879.01 72.21 840.23 72.21 820.84 38.62 840.23 5.03 879.01 5.03"/><polygon class="cls-1" points="1198.76 117.49 1218.15 151.08 1198.76 184.67 1159.97 184.67 1140.58 151.08 1159.97 117.49 1198.76 117.49"/><polygon class="cls-1" points="1071.06 117.49 1090.46 151.08 1071.06 184.67 1032.28 184.67 1012.88 151.08 1032.28 117.49 1071.06 117.49"/><polygon class="cls-1" points="968.17 221.16 948.78 187.57 968.17 153.98 1006.96 153.98 1026.35 187.57 1006.96 221.16 968.17 221.16"/><polygon class="cls-1" points="942.89 117.13 962.28 150.72 942.89 184.31 904.11 184.31 884.71 150.72 904.11 117.13 942.89 117.13"/><polygon class="cls-1" points="963.28 1.13 943.89 34.72 905.11 34.72 885.71 1.13 886.37 0 962.63 0 963.28 1.13"/><polygon class="cls-1" points="774.89 259.38 755.5 225.79 774.89 192.2 813.67 192.2 833.07 225.79 813.67 259.38 774.89 259.38"/><polygon class="cls-1" points="813.67 117.58 833.07 151.17 813.67 184.76 774.89 184.76 755.5 151.17 774.89 117.58 813.67 117.58"/><polygon class="cls-1" points="710.96 222.07 691.57 188.48 710.96 154.89 749.75 154.89 769.14 188.48 749.75 222.07 710.96 222.07"/><polygon class="cls-1" points="813.59 266.81 832.99 300.4 813.59 333.99 774.81 333.99 755.41 300.4 774.81 266.81 813.59 266.81"/><polygon class="cls-1" points="710.88 229.51 749.66 229.51 769.06 263.1 749.66 296.69 710.88 296.69 691.49 263.1 710.88 229.51"/><polyline class="cls-1" points="646.95 266.81 685.74 266.81 705.13 300.4 685.74 333.99 646.95 333.99"/><polyline class="cls-1" points="647 192.2 685.79 192.2 705.18 225.79 685.79 259.38 647 259.38"/><polygon class="cls-1" points="814.56 42.61 833.95 76.2 814.56 109.79 775.77 109.79 756.38 76.2 775.77 42.61 814.56 42.61"/><polygon class="cls-1" points="834 1.58 814.61 35.17 775.82 35.17 756.43 1.58 757.34 0 833.09 0 834 1.58"/><polygon class="cls-1" points="750.68 5.3 770.07 38.89 750.68 72.48 711.89 72.48 692.5 38.89 711.89 5.3 750.68 5.3"/><polyline class="cls-1" points="629.49 0 705.23 0 706.14 1.58 686.75 35.17 647.96 35.17"/><polygon class="cls-1" points="750.6 79.92 769.99 113.51 750.6 147.09 711.81 147.09 692.42 113.51 711.81 79.92 750.6 79.92"/><polyline class="cls-1" points="647.88 42.61 686.67 42.61 706.06 76.2 686.67 109.79 647.88 109.79"/><polyline class="cls-1" points="647.95 117.4 686.74 117.4 706.13 150.99 686.74 184.58 647.95 184.58"/><line class="cls-1" x1="1217.2" x2="1141.56"/><line class="cls-1" x1="1089.31" x2="1013.67"/><line class="cls-1" x1="962.63" x2="886.37"/><line class="cls-1" x1="833.09" x2="757.34"/><line class="cls-1" x1="705.23" x2="629.48"/><polygon class="cls-1" points="1324.19 629.8 1285.4 629.8 1266.01 596.21 1285.4 562.62 1324.19 562.62 1332.57 577.13 1332.57 615.28 1324.19 629.8"/><polygon class="cls-1" points="1324.19 555.18 1285.4 555.18 1266.01 521.59 1285.4 488 1324.19 488 1332.57 502.52 1332.57 540.67 1324.19 555.18"/><polygon class="cls-1" points="1325.07 480.21 1286.28 480.21 1266.89 446.62 1286.28 413.03 1325.07 413.03 1332.57 426.02 1332.57 467.22 1325.07 480.21"/><polygon class="cls-1" points="1325.12 405.59 1286.33 405.59 1266.94 372 1286.33 338.41 1325.12 338.41 1332.57 351.31 1332.57 392.69 1325.12 405.59"/><polygon class="cls-1" points="1325.7 259.47 1286.91 259.47 1267.52 225.88 1286.91 192.29 1325.7 192.29 1332.57 204.19 1332.57 247.57 1325.7 259.47"/><polygon class="cls-1" points="1325.7 184.85 1286.91 184.85 1267.52 151.26 1286.91 117.67 1325.7 117.67 1332.57 129.57 1332.57 172.95 1325.7 184.85"/><polygon class="cls-1" points="1325.62 334.08 1286.83 334.08 1267.44 300.49 1286.83 266.9 1325.62 266.9 1332.57 278.94 1332.57 322.04 1325.62 334.08"/><polygon class="cls-1" points="1326.58 109.88 1287.79 109.88 1268.4 76.29 1287.79 42.7 1326.58 42.7 1332.57 53.07 1332.57 99.5 1326.58 109.88"/><polygon class="cls-1" points="1326.63 35.26 1287.84 35.26 1268.45 1.67 1269.42 0 1332.57 0 1332.57 24.98 1326.63 35.26"/><polygon class="cls-1" points="1157.46 637.23 1196.25 637.23 1215.64 670.82 1138.07 670.82 1157.46 637.23"/><polygon class="cls-1" points="1010.13 670.46 1029.52 636.88 1068.31 636.88 1087.7 670.46 1087.49 670.82 1010.34 670.82 1010.13 670.46"/><polygon class="cls-1" points="882.27 670.46 901.66 636.88 940.45 636.88 959.84 670.46 959.64 670.82 882.48 670.82 882.27 670.46"/><polygon class="cls-1" points="753.9 670.73 773.3 637.14 812.08 637.14 831.48 670.73 831.42 670.82 753.96 670.82 753.9 670.73"/><polyline class="cls-1" points="645.44 637.14 684.23 637.14 703.62 670.73 703.57 670.82 626.1 670.82"/><polygon class="cls-1" points="1285.32 637.23 1324.11 637.23 1332.57 651.89 1332.57 670.82 1265.93 670.82 1285.32 637.23"/><line class="cls-1" x1="1138.07" y1="670.82" x2="1215.64" y2="670.82"/><line class="cls-1" x1="1010.34" y1="670.82" x2="1087.49" y2="670.82"/><line class="cls-1" x1="882.48" y1="670.82" x2="959.64" y2="670.82"/><line class="cls-1" x1="753.96" y1="670.82" x2="831.42" y2="670.82"/><line class="cls-1" x1="626.1" y1="670.82" x2="703.57" y2="670.82"/></g></g></svg>