<svg xmlns="http://www.w3.org/2000/svg" viewBox="0 0 175.74 160.94"><defs><style>.cls-1{fill:none;stroke:#a3bac3;stroke-miterlimit:10;stroke-width:3px;}</style></defs><g id="Layer_2" data-name="Layer 2"><g id="Layer_6" data-name="Layer 6"><polygon class="cls-1" points="108.66 117.28 128.61 80.15 108.66 43.02 68.76 43.02 48.81 80.15 68.76 117.28 108.66 117.28"/><polygon class="cls-1" points="49.84 1.5 68.76 36.73 108.66 36.73 127.58 1.5 49.84 1.5"/><polygon class="cls-1" points="42.77 1.69 2.87 1.69 1.5 4.24 1.5 73.4 2.87 75.96 42.77 75.96 62.72 38.82 42.77 1.69"/><polygon class="cls-1" points="41.74 84.46 1.84 84.46 1.5 85.1 1.5 158.09 1.84 158.72 41.74 158.72 61.69 121.59 41.74 84.46"/><polygon class="cls-1" points="126.99 159.44 107.63 123.41 67.73 123.41 48.38 159.44 126.99 159.44"/><polygon class="cls-1" points="174.24 1.69 136.01 1.69 116.06 38.82 136.01 75.96 174.24 75.96 174.24 1.69"/><polygon class="cls-1" points="174.24 84.46 134.98 84.46 115.03 121.59 134.98 158.72 174.24 158.72 174.24 84.46"/></g></g></svg>